<svg width="21" height="21" viewBox="0 0 21 21" fill="none" xmlns="http://www.w3.org/2000/svg">
<path fill-rule="evenodd" clip-rule="evenodd" d="M10.2681 5.90625C8.95035 5.90625 7.87828 7.00269 7.87828 8.35039C7.87828 9.69809 8.95035 10.7945 10.2681 10.7945C11.5859 10.7945 12.6579 9.69809 12.6579 8.35039C12.6579 7.00269 11.5859 5.90625 10.2681 5.90625ZM15.8334 7.37555C14.6474 7.37555 13.6825 8.31301 13.6825 9.46529C13.6825 10.6176 14.6474 11.555 15.8334 11.555C17.0193 11.555 17.9842 10.6176 17.9842 9.46529C17.9842 8.31301 17.0193 7.37555 15.8334 7.37555ZM4.77585 7.37555C5.96182 7.37555 6.92669 8.31301 6.92669 9.46529C6.92669 10.6176 5.96182 11.555 4.77585 11.555C3.58987 11.555 2.625 10.6176 2.625 9.46529C2.625 8.31301 3.58987 7.37555 4.77585 7.37555Z" fill="white"/>
<path d="M10.4649 19.4874C11.647 19.4874 12.7761 19.523 13.8106 19.1097V14.649C13.8106 13.3013 12.7386 12.2049 11.4208 12.2049H9.50896C8.1912 12.2049 7.11913 13.3013 7.11913 14.649V19.1097C8.15373 19.523 9.28277 19.4874 10.4649 19.4874Z" fill="white"/>
<path d="M19 14C18.2085 15.9284 16.5838 17.7003 14.7666 18.6877V14.649C14.7666 14.0215 14.6005 13.4329 14.3109 12.9267C14.5741 12.8148 14.8647 12.7528 15.1699 12.7528H16.8905C17.6567 12.7528 18.3306 13.144 18.7117 13.7316C18.7487 13.7887 18.9679 13.9525 19 14Z" fill="white"/>
<path d="M6.16319 18.8485C4.36695 17.8724 2.79707 16.3985 2 14.5C2.04442 14.4359 2.23605 13.8167 2.29119 13.7316C2.67227 13.144 3.34616 12.7528 4.11232 12.7528H5.83299C6.11547 12.7528 6.3854 12.8059 6.63274 12.9025C6.33459 13.4141 6.16319 14.0115 6.16319 14.649V18.8485Z" fill="white"/>
<path fill-rule="evenodd" clip-rule="evenodd" d="M10.5 21C16.299 21 21 16.299 21 10.5C21 4.70101 16.299 0 10.5 0C4.70101 0 0 4.70101 0 10.5C0 16.299 4.70101 21 10.5 21ZM10.4649 19.4874C15.8104 19.4874 19.4875 15.8103 19.4875 10.4648C19.4875 5.11938 15.8104 1.44228 10.4649 1.44228C5.11946 1.44228 1.44236 5.11938 1.44236 10.4648C1.44236 15.8103 5.11946 19.4874 10.4649 19.4874Z" fill="white"/>
</svg>
