<svg width="334" height="48" viewBox="0 0 334 48" fill="none" xmlns="http://www.w3.org/2000/svg">
<path d="M23.8045 0C10.6553 0 0 10.7448 0 24.0042C0 37.2552 10.6553 48 23.8045 48C36.9536 48 47.609 37.2552 47.609 23.9958C47.6006 10.7448 36.9452 0 23.8045 0Z" fill="#0067B2"/>
<path d="M23.8045 1.20239C11.3187 1.20239 1.19238 11.4137 1.19238 24.0043C1.19238 36.5949 11.3187 46.8062 23.8045 46.8062C36.2903 46.8062 46.4167 36.5949 46.4167 24.0043C46.4167 11.4052 36.2903 1.20239 23.8045 1.20239Z" fill="white"/>
<path d="M23.8045 2.27759C11.9064 2.27759 2.2671 12.0063 2.2671 23.9957C2.2587 35.9936 11.9064 45.7223 23.8045 45.7223C35.6941 45.7223 45.3419 35.9936 45.3419 24.0042C45.3419 12.0063 35.6941 2.27759 23.8045 2.27759ZM23.8045 37.56C16.3735 37.56 10.3531 31.4891 10.3531 23.9957C10.3531 16.5023 16.3735 10.4314 23.8045 10.4314C31.2355 10.4314 37.2559 16.5023 37.2559 23.9957C37.2475 31.4891 31.2271 37.56 23.8045 37.56Z" fill="#DB052C"/>
<path d="M11.982 27.6874C12.5446 29.5247 13.4934 31.1419 14.7109 32.4628V26.8407L11.5538 22.1922C11.2935 23.9788 11.411 25.85 11.982 27.6874ZM18.3467 32.1495V25.7061L14.7361 20.3887V15.5117C14.0644 16.2398 13.4934 17.0442 13.0148 17.8994L14.7109 20.3972V26.8407L18.3215 32.158V35.1892C19.1947 35.6295 20.1268 35.9597 21.084 36.1799L18.3467 32.1495ZM21.9824 24.5715L25.593 29.8888V36.3323L21.9824 31.0149V24.5715L18.3719 19.2541V12.8107L21.9824 18.128V24.5715ZM25.6182 23.4369L22.0076 18.1195V11.6761L25.6182 16.9934V23.4369L29.2287 28.7542V35.1977L25.6182 29.8803V23.4369ZM20.1436 12.0825C18.2963 12.6583 16.6841 13.632 15.3659 14.8682L18.3467 19.2626V25.7061L21.9572 31.0234V36.3492C23.7457 36.6202 25.6182 36.5016 27.4654 35.9259C29.3127 35.3501 30.9248 34.3764 32.2431 33.1402L29.2623 28.7458V22.3023L25.6517 16.985V11.6591C23.8633 11.3882 21.9824 11.5067 20.1436 12.0825ZM32.898 27.6112V21.1677L29.2875 15.8504V12.8191C28.4142 12.3788 27.4822 12.0486 26.525 11.8285L29.2539 15.8504V22.2938L32.8645 27.6112V32.4882C33.5362 31.76 34.1072 30.9557 34.5858 30.1005L32.898 27.6112ZM35.627 20.3125C35.0644 18.4752 34.1156 16.8579 32.898 15.5371V21.1677L36.0552 25.8161C36.3071 24.0211 36.1895 22.1499 35.627 20.3125Z" fill="#0067B2"/>
<path d="M9.40428 28.4939L10.0172 29.8063L9.02643 31.7029C8.8753 31.9823 8.74935 32.2194 8.74935 32.2194L8.76614 32.2448C8.76614 32.2448 9.02644 32.2618 9.34551 32.2872L11.4615 32.4819L12.2172 33.7096L7.64099 36.4022L6.91048 35.2168L8.82492 34.0906C9.26994 33.8282 9.6058 33.6419 9.6058 33.6419L9.58901 33.6165C9.58901 33.6165 9.3539 33.5996 8.8753 33.5233L6.92728 33.227L6.91048 33.2016L7.73335 31.3981C7.93487 30.9494 8.05242 30.7461 8.05242 30.7461L8.03563 30.7207C8.03563 30.7207 7.69977 30.907 7.23795 31.1441L5.25634 32.1517L4.66858 30.8901L9.40428 28.4939Z" fill="white"/>
<path d="M12.9057 34.3088L13.9637 35.2572L11.8478 37.7973C11.5035 38.2206 11.5203 38.6609 12.0409 39.0843C12.5699 39.4992 12.9981 39.4145 13.3256 38.9742L15.282 36.2986L16.4407 37.1114L14.4339 39.8463C13.5187 41.0994 12.3264 40.8539 11.2936 40.0411C10.2608 39.2197 9.74861 38.1106 10.7394 36.9167L12.9057 34.3088ZM15.0133 36.0446L13.7118 36.959L13.6866 36.9421L14.266 35.4519L15.0133 36.0446Z" fill="white"/>
<path d="M17.2468 37.5771L18.6239 38.0852L19.4047 40.7692C19.5727 41.345 19.6398 41.6583 19.6398 41.6583L19.6818 41.6668C19.6818 41.6668 19.7742 41.2688 19.9001 40.7777L20.4627 38.644L21.8062 38.9658L20.4375 44.1307L19.0101 43.7835L18.1285 40.9809C17.9605 40.439 17.885 40.0919 17.885 40.0919L17.843 40.0834C17.843 40.0834 17.7254 40.5068 17.5743 40.9555L16.8522 43.1316L15.5591 42.6489L17.2468 37.5771Z" fill="white"/>
<path d="M27.5578 42.2002C27.583 43.4702 26.8021 44.3339 25.2991 44.444C23.8969 44.5371 22.5786 43.8936 22.503 41.8276C22.4275 39.7362 23.5778 38.9488 24.9213 38.8557C26.3823 38.7541 27.2303 39.5754 27.3731 40.693L25.9541 40.7862C25.8197 40.3035 25.5678 40.0157 24.9381 40.058C24.3503 40.1003 23.9473 40.6422 23.9892 41.7175C24.0396 42.8437 24.5014 43.2755 25.1564 43.2332C25.8113 43.1908 26.0968 42.8691 26.1304 42.2933L27.5578 42.2002Z" fill="white"/>
<path d="M27.877 38.5084L29.1952 38.0003L29.9425 39.8038L31.5883 39.0503L30.7318 37.2976L31.9745 36.6287L34.3256 41.421L33.0829 42.09L32.1508 40.1849L30.4295 40.9723L31.2356 42.9282L29.9173 43.4362L27.877 38.5084Z" fill="white"/>
<path d="M32.7974 36.0022L35.3331 33.5552L36.1476 34.3595L34.5607 35.8921L35.1652 36.5695L36.7018 35.0793L37.4995 35.8667L35.9125 37.3992L36.5758 38.1443L38.3643 36.4171L39.1788 37.2214L36.3407 39.9648L32.7974 36.0022Z" fill="white"/>
<path d="M35.9712 32.7932L36.7017 31.5062L39.4558 31.1844C40.052 31.1167 40.3626 31.0997 40.3626 31.0997L40.3794 31.0659C40.3794 31.0659 40.0016 30.905 39.5482 30.6933L37.5582 29.7704L38.0955 28.4834L42.9068 30.7187L42.3275 32.0734L39.439 32.4799C38.8764 32.5561 38.5322 32.573 38.5322 32.573L38.5154 32.6069C38.5154 32.6069 38.9016 32.7932 39.3215 33.0218L41.3199 34.1056L40.6313 35.3163L35.9712 32.7932Z" fill="white"/>
<path d="M5.65935 15.0969L6.72573 15.5203L5.87767 17.8911L6.86847 18.2213L7.66615 16.0029L8.69894 16.4178L7.92645 18.5684L9.7821 19.1781L9.37906 20.5413L4.3075 18.8817L5.65935 15.0969Z" fill="white"/>
<path d="M12.1583 11.5746C13.0736 12.4128 13.2331 13.5559 12.3179 14.7243C11.4782 15.7912 10.1935 16.3077 8.52259 15.0545C6.87684 13.8268 7.09516 12.3705 7.96841 11.2528C8.89204 10.0759 10.076 9.97429 10.9912 10.6347L10.1096 11.7608C9.68132 11.5153 9.27828 11.5407 8.87525 12.0572C8.47221 12.5737 8.56457 13.2087 9.45461 13.8776C10.3111 14.5211 10.9744 14.4957 11.3439 14.0216C11.7385 13.5135 11.6629 13.1071 11.2767 12.7007L12.1583 11.5746Z" fill="white"/>
<path d="M15.6345 5.52894C16.5749 5.08865 17.4902 4.99551 17.8932 5.96076C18.2207 6.7482 18.0108 7.09536 17.6077 7.44251L17.6245 7.47638C18.0612 7.37477 18.6489 7.3917 19.0184 8.27228C19.4634 9.33067 18.7833 9.94877 17.8428 10.3806L15.8612 11.3035L13.485 6.52806L15.6345 5.52894ZM16.4322 7.45944C16.8017 7.2901 16.9024 7.11229 16.7597 6.75667C16.6169 6.40952 16.3734 6.38412 16.0208 6.55346L15.2315 6.92601L15.6765 7.81506L16.4322 7.45944ZM17.3306 9.41534C17.7337 9.22907 17.8428 9.06819 17.6749 8.66177C17.5154 8.28075 17.2383 8.27228 16.8268 8.45856L16.1467 8.78031L16.6253 9.73709L17.3306 9.41534Z" fill="white"/>
<path d="M25.2823 9.03452H23.7793L23.3426 8.07773L21.5206 8.23861L21.2603 9.25466L19.7825 9.51714L21.2519 3.92885L22.8892 3.78491L25.2823 9.03452ZM22.9312 7.04475L22.4778 6.00329C22.3183 5.64767 22.2007 5.33439 22.2007 5.33439H22.1755C22.1755 5.33439 22.1167 5.66461 22.016 6.03716L21.7473 7.13788L22.9312 7.04475Z" fill="white"/>
<path d="M26.6174 7.46807L25.3831 3.6748L26.97 3.97962L27.4486 5.58837C27.541 5.89319 27.6166 6.2234 27.6166 6.2234L27.6418 6.23187C27.6418 6.23187 27.8517 5.96939 28.0532 5.72384L29.1531 4.46225L30.7233 4.85173L28.0448 7.78982L27.6334 9.55944L26.2479 9.25463L26.6174 7.46807Z" fill="white"/>
<path d="M31.798 5.30908L35.1315 7.15491L34.5521 8.14556L32.495 7.01097L32.0835 7.82381L33.9812 8.87373L33.4102 9.83898L31.5713 8.82293L31.1179 9.71197L33.1247 10.8212L32.5453 11.8118L29.3966 10.0676L31.798 5.30908Z" fill="white"/>
<path d="M36.9789 8.60278L38.5994 10.347C39.4307 11.2445 39.6238 12.0997 38.6414 12.9718C38.0117 13.5306 37.5498 13.683 36.9957 13.4629L36.1476 15.6135L35.1484 14.3773L35.9209 12.6162L35.4591 12.1166L34.208 13.3782L33.1836 12.396L36.9789 8.60278ZM36.2484 11.3377L36.7941 11.9304C37.0964 12.2606 37.3567 12.269 37.6926 11.9642C38.0284 11.6679 38.0201 11.38 37.7178 11.0582L37.1384 10.4401L36.2484 11.3377Z" fill="white"/>
<path d="M38.3138 20.5413L37.8268 19.1442L39.3886 16.8412C39.7245 16.3501 39.9176 16.0961 39.9176 16.0961L39.9008 16.0537C39.9008 16.0537 39.5398 16.24 39.0779 16.4432L37.0795 17.3577L36.475 16.1045L41.303 13.9031L41.9412 15.2324L40.3626 17.6963C40.0603 18.162 39.8336 18.4499 39.8336 18.4499L39.8504 18.4922C39.8504 18.4922 40.2451 18.3229 40.6901 18.1451L42.8144 17.3323L43.2679 18.6531L38.3138 20.5413Z" fill="white"/>
<path d="M100.676 34.4949V39.2365H98.8956V34.4949L94.6301 27.2471H96.7209L98.5682 30.5492C98.6689 30.7355 98.7781 30.9387 98.8956 31.1673C99.0132 31.396 99.1307 31.6246 99.2483 31.8447C99.3658 32.0649 99.475 32.2765 99.559 32.4713C99.6513 32.666 99.7269 32.8184 99.7773 32.937C99.8193 32.8269 99.8948 32.6745 99.9872 32.4797C100.08 32.2935 100.189 32.0903 100.298 31.8701C100.407 31.65 100.533 31.4298 100.651 31.2012C100.776 30.9726 100.886 30.7609 100.986 30.5662L102.85 27.2471H104.908L100.676 34.4949Z" fill="#DB052C"/>
<path d="M115.807 33.2336C115.807 34.1734 115.681 35.0201 115.429 35.7737C115.177 36.5357 114.833 37.1877 114.387 37.7296C113.942 38.2715 113.405 38.6948 112.784 38.9912C112.162 39.2875 111.474 39.4399 110.71 39.4399C109.962 39.4399 109.274 39.296 108.653 38.9997C108.031 38.7118 107.494 38.2969 107.057 37.755C106.612 37.2216 106.276 36.5696 106.033 35.8076C105.789 35.0455 105.672 34.1988 105.672 33.2674C105.672 32.3276 105.798 31.4809 106.041 30.7273C106.293 29.9653 106.637 29.3133 107.082 28.7714C107.527 28.2295 108.065 27.8061 108.686 27.5098C109.308 27.2134 109.996 27.061 110.743 27.061C111.499 27.061 112.196 27.205 112.817 27.5013C113.439 27.7892 113.976 28.2041 114.413 28.746C114.858 29.2794 115.194 29.9314 115.437 30.6934C115.681 31.447 115.807 32.2937 115.807 33.2336ZM113.984 33.2674C113.984 32.5816 113.9 31.972 113.741 31.4301C113.573 30.8882 113.346 30.4225 113.052 30.0415C112.759 29.6604 112.406 29.3641 112.011 29.1609C111.608 28.9577 111.172 28.8561 110.693 28.8561C110.214 28.8561 109.786 28.9577 109.391 29.1524C108.997 29.3556 108.661 29.6435 108.384 30.0161C108.098 30.3971 107.88 30.8543 107.721 31.3962C107.561 31.9381 107.485 32.5562 107.485 33.2336C107.485 33.9194 107.569 34.529 107.729 35.0709C107.897 35.6128 108.124 36.0785 108.409 36.4595C108.695 36.8405 109.047 37.1369 109.442 37.3401C109.845 37.5433 110.282 37.6449 110.76 37.6449C111.239 37.6449 111.667 37.5433 112.062 37.3486C112.456 37.1454 112.792 36.8575 113.078 36.4849C113.363 36.1039 113.59 35.6467 113.749 35.1048C113.909 34.5629 113.984 33.9533 113.984 33.2674Z" fill="#DB052C"/>
<path d="M126.092 38.102C125.311 38.991 124.178 39.4313 122.692 39.4313C121.222 39.4313 120.106 38.9741 119.358 38.0596C118.603 37.1452 118.225 35.8582 118.225 34.2071V27.2556H120.005V34.1563C120.005 35.2994 120.232 36.163 120.693 36.7472C121.155 37.3315 121.827 37.6278 122.725 37.6278C123.666 37.6278 124.354 37.3484 124.808 36.7811C125.253 36.2138 125.479 35.3756 125.479 34.2748V27.2556H127.26V34.241C127.268 35.9259 126.873 37.2214 126.092 38.102Z" fill="#DB052C"/>
<path d="M134.774 29.0168V39.245H132.994V29.0168H129.527V27.2556H138.242V29.0168H134.774Z" fill="#DB052C"/>
<path d="M147.831 39.245V33.9023H142.365V39.245H140.585V27.2556H142.365V32.0988H147.831V27.2556H149.611V39.245H147.831Z" fill="#DB052C"/>
<path d="M164.163 38.8387C163.466 39.2367 162.668 39.4314 161.761 39.4314C160.989 39.4314 160.3 39.279 159.679 38.9742C159.058 38.6694 158.537 38.246 158.1 37.6956C157.664 37.1453 157.328 36.4933 157.093 35.7397C156.858 34.9862 156.74 34.1564 156.74 33.2419C156.74 32.336 156.858 31.5062 157.093 30.7526C157.328 29.9906 157.664 29.3386 158.1 28.7882C158.537 28.2379 159.066 27.8145 159.679 27.5097C160.292 27.2049 160.989 27.0525 161.761 27.0525C162.735 27.0525 163.55 27.2472 164.205 27.6283C164.86 28.0093 165.397 28.5681 165.8 29.2963L164.222 30.2869C163.919 29.7958 163.583 29.4317 163.222 29.2031C162.861 28.9661 162.374 28.856 161.761 28.856C160.72 28.856 159.931 29.2539 159.385 30.0414C158.839 30.8288 158.571 31.8957 158.571 33.2419C158.571 34.5882 158.839 35.6551 159.385 36.4425C159.931 37.2299 160.72 37.6279 161.761 37.6279C162.383 37.6279 162.903 37.5009 163.306 37.2469C163.718 36.9929 164.07 36.6288 164.373 36.1377L165.85 37.1283C165.422 37.8735 164.86 38.4407 164.163 38.8387Z" fill="#DB052C"/>
<path d="M176.027 38.102C175.246 38.991 174.113 39.4313 172.627 39.4313C171.157 39.4313 170.04 38.9741 169.293 38.0596C168.537 37.1452 168.16 35.8582 168.16 34.2071V27.2556H169.94V34.1563C169.94 35.2994 170.166 36.163 170.628 36.7472C171.09 37.3315 171.762 37.6278 172.66 37.6278C173.601 37.6278 174.289 37.3484 174.743 36.7811C175.188 36.2138 175.414 35.3756 175.414 34.2748V27.2556H177.194V34.241C177.203 35.9259 176.808 37.2214 176.027 38.102Z" fill="#DB052C"/>
<path d="M189 31.0065C189 31.6246 188.908 32.1665 188.715 32.6322C188.521 33.0979 188.253 33.4959 187.9 33.8176C187.547 34.1394 187.136 34.3764 186.649 34.5373C186.17 34.6982 185.641 34.7744 185.062 34.7744H181.955V39.245H180.209V27.2556H185.188C185.734 27.2556 186.238 27.3318 186.708 27.4927C187.178 27.6536 187.581 27.8906 187.925 28.2039C188.261 28.5172 188.53 28.9067 188.723 29.3809C188.908 29.8465 189 30.3884 189 31.0065ZM187.186 31.0065C187.186 30.3461 187.002 29.8381 186.632 29.4825C186.263 29.1268 185.767 28.949 185.146 28.949H181.955V33.0725H185.146C185.826 33.0725 186.338 32.8862 186.674 32.5222C187.018 32.1581 187.186 31.65 187.186 31.0065Z" fill="#DB052C"/>
<path d="M156.765 15.5032H160.812V13.1747H156.765V11.1003H162.643V8.75488H154.389V20.7358H162.895V18.3904H156.765V15.5032Z" fill="#DB052C"/>
<path d="M175.045 12.5566C175.045 11.3373 174.658 10.3975 173.894 9.73707C173.122 9.0851 172.148 8.75488 170.956 8.75488H165.422V20.7358H167.798V16.4261H170.191L172.316 20.7358H175.045L172.769 16.0789C174.289 15.4778 175.045 14.3008 175.045 12.5566ZM170.905 14.1654H167.798V11.0833H170.905C171.451 11.0833 171.862 11.2019 172.165 11.4474C172.459 11.693 172.61 12.074 172.61 12.5989C172.601 13.6489 172.039 14.1654 170.905 14.1654Z" fill="#DB052C"/>
<path d="M135.723 8.75488L131.172 20.7358H133.716L134.648 18.0687H138.99L139.922 20.7358H142.533L138.016 8.75488H135.723ZM135.471 15.791L136.235 13.615C136.378 13.1832 136.504 12.8106 136.605 12.4973C136.706 12.1841 136.781 11.9385 136.823 11.7522C136.865 11.9385 136.941 12.1841 137.041 12.4973C137.142 12.8106 137.268 13.1832 137.411 13.615L138.175 15.791H135.471Z" fill="#DB052C"/>
<path d="M148.285 11.5998C148.058 11.9978 147.814 12.4296 147.554 12.9038C147.294 13.3695 147.109 13.7166 146.992 13.9452C146.916 13.7759 146.832 13.615 146.748 13.4626C146.664 13.3102 146.547 13.09 146.395 12.8106C146.244 12.5312 146.118 12.3111 146.026 12.1502C145.925 11.9893 145.824 11.8115 145.715 11.5998L144.036 8.75488H141.307L145.808 16.0451V20.7358H148.184V15.9943L152.685 8.75488H149.964L148.285 11.5998Z" fill="#DB052C"/>
<path d="M109.853 10.9479C110.374 10.9479 110.81 11.0579 111.171 11.2781C111.524 11.4982 111.81 11.82 112.028 12.2433L114.236 11.2188C113.842 10.389 113.287 9.73706 112.574 9.27137C111.86 8.80568 110.97 8.5686 109.895 8.5686C109.123 8.5686 108.417 8.72101 107.771 9.01736C107.124 9.31371 106.57 9.73706 106.091 10.2959C105.613 10.8463 105.252 11.5067 105 12.2687C104.748 13.0308 104.622 13.8605 104.622 14.7581C104.622 15.6894 104.748 16.5446 104.992 17.3066C105.243 18.0687 105.596 18.7207 106.05 19.2625C106.503 19.8044 107.057 20.2193 107.695 20.5072C108.333 20.7951 109.039 20.939 109.811 20.939C110.861 20.939 111.751 20.702 112.481 20.2363C113.212 19.7706 113.783 19.1017 114.203 18.238L112.196 17.0442C111.877 17.5945 111.541 17.984 111.188 18.2126C110.836 18.4497 110.391 18.5598 109.87 18.5598C108.997 18.5598 108.308 18.2042 107.804 17.4929C107.301 16.7817 107.049 15.8672 107.049 14.7665C107.049 13.6235 107.301 12.709 107.796 12.0147C108.3 11.295 108.98 10.9479 109.853 10.9479Z" fill="#DB052C"/>
<path d="M184.651 13.8267C184.651 13.9622 184.659 14.4786 184.667 15.3677C184.676 15.9858 184.684 16.3414 184.684 16.443C184.617 16.3075 184.508 16.1128 184.357 15.8673C184.206 15.6217 184.046 15.3762 183.895 15.1391C183.886 15.1137 183.87 15.0967 183.861 15.0883L179.655 8.75488H177.379V20.7358H179.722V15.4693C179.722 15.3338 179.713 14.8173 179.705 13.9283C179.697 13.3102 179.688 12.9546 179.688 12.853C179.755 12.9884 179.864 13.1832 180.016 13.4287C180.167 13.6743 180.326 13.9113 180.486 14.1569C180.494 14.1823 180.511 14.1992 180.519 14.2077L184.886 20.7443H187.01V8.75488H184.667V13.8267H184.651Z" fill="#DB052C"/>
<path d="M128.519 14.25C128.914 14.013 129.224 13.6912 129.443 13.2848C129.661 12.8784 129.77 12.4296 129.77 11.9216C129.77 10.9055 129.434 10.1266 128.771 9.57619C128.099 9.02583 127.184 8.75488 126 8.75488H120.551V20.7358H125.95C127.251 20.7358 128.284 20.3971 129.04 19.7282C129.795 19.0593 130.173 18.1026 130.173 16.8664C130.173 16.2398 130.022 15.7064 129.728 15.2576C129.426 14.8173 129.023 14.4786 128.519 14.25ZM122.876 10.9648H125.899C126.411 10.9648 126.781 11.0579 127.008 11.2442C127.234 11.4305 127.352 11.7184 127.352 12.1079C127.352 12.4635 127.243 12.7344 127.033 12.9376C126.814 13.1408 126.479 13.234 126.017 13.234H122.876V10.9648ZM127.31 18.0433C127.024 18.3227 126.605 18.4667 126.034 18.4667H122.876V15.3677H126.034C127.167 15.3677 127.73 15.8842 127.73 16.9087C127.73 17.3829 127.595 17.7639 127.31 18.0433Z" fill="#DB052C"/>
<path d="M95.2095 20.7358H97.5857V15.6894H101.801V13.361H97.5857V11.1003H103.707V8.75488H95.2095V20.7358Z" fill="#DB052C"/>
<path d="M227.1 9.676V29.5H228.444V9.676H227.1ZM237.46 19.504L242.192 9.676H240.708L237.04 17.292L233.4 9.676H231.916L236.62 19.504H237.46ZM245.664 9.676V29.5H247.008V9.676H245.664ZM241.828 17.012L237.74 25.02H236.312L232.252 17.012H231.412V29.5H232.756V20.848L235.472 26.252H238.58L241.324 20.876L241.296 29.5H242.64L242.668 17.012H241.828Z" fill="#DB052C"/>
<path d="M257.797 8.444H259.141L263.173 5.672V5H261.829L257.797 7.772V8.444ZM251.217 29.5H265.553V28.268H252.561V10.908H265.553V9.676H251.217V29.5ZM255.753 18.132H263.369V16.9H257.097V14.968H265.553V13.736H255.753V18.132ZM255.753 25.44H265.553V24.208H257.097V22.22H263.369V20.988H255.753V25.44Z" fill="#DB052C"/>
<path d="M268.114 29.5H268.954L274.666 19.504L269.01 9.676H268.17V10.908L273.098 19.504L268.114 28.268V29.5ZM276.178 16.284H277.018L280.518 9.676H279.118L276.598 14.632L274.078 9.676H272.678L276.178 16.284ZM284.242 29.5H285.082V28.268L280.098 19.504L285.026 10.908V9.676H284.186L278.53 19.504L284.242 29.5ZM272.594 29.5H273.994L276.598 24.404L279.202 29.5H280.602L276.99 22.724H276.178L272.594 29.5Z" fill="#DB052C"/>
<path d="M288.049 29.5H289.393V9.676H288.049V29.5ZM292.613 29.5H293.957V9.676H292.613V29.5Z" fill="#DB052C"/>
<path d="M305.838 29.864C310.682 29.864 313.958 26.868 313.958 22.444V21.408H312.642V22.416C312.642 26.168 309.926 28.632 305.838 28.632C301.582 28.632 298.922 26.056 298.922 21.912V17.264C298.922 13.12 301.582 10.544 305.838 10.544C309.926 10.544 312.642 13.008 312.642 16.76V17.74H313.958V16.76C313.958 12.336 310.682 9.312 305.838 9.312C300.826 9.312 297.578 12.42 297.578 17.264V21.912C297.578 26.756 300.826 29.864 305.838 29.864ZM305.838 25.72C308.022 25.72 309.366 24.376 309.366 22.192V21.408H308.05V22.192C308.05 23.732 307.322 24.488 305.838 24.488C304.214 24.488 303.514 23.704 303.514 21.912V17.264C303.514 15.5 304.242 14.716 305.838 14.716C307.322 14.716 308.05 15.472 308.05 17.012V17.74H309.366V17.012C309.366 14.828 308.022 13.484 305.838 13.484C303.458 13.484 302.17 14.828 302.17 17.264V21.912C302.17 24.376 303.458 25.72 305.838 25.72Z" fill="#DB052C"/>
<path d="M325.394 29.864C330.434 29.864 333.85 26.672 333.85 21.912V17.292C333.85 12.532 330.434 9.312 325.394 9.312C320.326 9.312 316.91 12.532 316.91 17.292V21.912C316.91 26.644 320.326 29.864 325.394 29.864ZM325.394 28.632C321.082 28.632 318.254 25.972 318.254 21.912V17.292C318.254 13.204 321.082 10.544 325.394 10.544C329.678 10.544 332.506 13.204 332.506 17.292V21.912C332.506 26 329.706 28.632 325.394 28.632ZM325.394 25.692C327.914 25.692 329.258 24.376 329.258 21.912V17.292C329.258 14.856 327.858 13.484 325.394 13.484C322.902 13.484 321.502 14.856 321.502 17.292V21.912C321.502 24.348 322.874 25.692 325.394 25.692ZM325.394 24.46C323.658 24.46 322.846 23.648 322.846 21.912V17.292C322.846 15.556 323.658 14.716 325.394 14.716C327.102 14.716 327.914 15.556 327.914 17.292V21.912C327.914 23.676 327.158 24.46 325.394 24.46Z" fill="#DB052C"/>
<path d="M272 34H227V37H272V34Z" fill="#099319"/>
<path d="M334 34H289V37H334V34Z" fill="#D60505"/>
<path d="M280.5 37C281.328 37 282 36.3284 282 35.5C282 34.6716 281.328 34 280.5 34C279.672 34 279 34.6716 279 35.5C279 36.3284 279.672 37 280.5 37Z" fill="#3A3123"/>
</svg>
