<svg width="27" height="27" viewBox="0 0 27 27" fill="none" xmlns="http://www.w3.org/2000/svg">
<path d="M13.4986 6.37583C9.77397 6.37583 6.75668 9.39458 6.75668 13.1177C6.75668 16.8423 9.77397 19.861 13.4986 19.861C17.2202 19.861 20.2404 16.8423 20.2404 13.1177C20.2404 9.39458 17.2202 6.37583 13.4986 6.37583ZM13.4986 17.4985C11.0792 17.4985 9.11772 15.5371 9.11772 13.1192C9.11772 10.6998 11.0792 8.73979 13.4986 8.73979C15.9179 8.73979 17.8765 10.6998 17.8765 13.1192C17.8765 15.5371 15.9179 17.4985 13.4986 17.4985Z" fill="#DCE2E5"/>
<path d="M20.5088 7.7C21.377 7.7 22.0808 6.99615 22.0808 6.12792C22.0808 5.25968 21.377 4.55583 20.5088 4.55583C19.6405 4.55583 18.9367 5.25968 18.9367 6.12792C18.9367 6.99615 19.6405 7.7 20.5088 7.7Z" fill="#DCE2E5"/>
<path d="M25.944 4.52958C25.26 2.76646 23.8673 1.37229 22.1042 0.69125C21.0848 0.307708 20.0071 0.102083 18.9163 0.0787499C17.5119 0.0174999 17.0671 0 13.5058 0C9.9446 0 9.48814 -1.46683e-07 8.09543 0.0787499C7.00751 0.100625 5.9298 0.30625 4.91043 0.69125C3.14585 1.37229 1.75314 2.76646 1.07064 4.52958C0.687096 5.55042 0.481471 6.62667 0.459596 7.7175C0.396888 9.12042 0.37793 9.56521 0.37793 13.1279C0.37793 16.6892 0.37793 17.1427 0.459596 18.5383C0.481471 19.6292 0.687096 20.7054 1.07064 21.7277C1.7546 23.4894 3.1473 24.8835 4.91189 25.566C5.92689 25.9627 7.0046 26.1873 8.09835 26.2223C9.50272 26.2835 9.94751 26.3025 13.5088 26.3025C17.07 26.3025 17.5265 26.3025 18.9192 26.2223C20.0086 26.2004 21.0863 25.9933 22.1071 25.6113C23.8702 24.9273 25.2629 23.5346 25.9469 21.7715C26.3304 20.7506 26.5361 19.6744 26.5579 18.5835C26.6206 17.1806 26.6396 16.7358 26.6396 13.1731C26.6396 9.61042 26.6396 9.15833 26.5579 7.76271C26.539 6.65729 26.3348 5.56208 25.944 4.52958ZM24.1677 18.4304C24.1575 19.2704 24.0058 20.1031 23.7142 20.8921C23.2694 22.0398 22.3638 22.9469 21.2175 23.3873C20.4373 23.6775 19.6148 23.8292 18.7821 23.8408C17.3967 23.905 17.0058 23.921 13.4533 23.921C9.89793 23.921 9.5348 23.921 8.12314 23.8408C7.29335 23.8306 6.46793 23.6775 5.68918 23.3873C4.53855 22.9483 3.6271 22.0413 3.1823 20.8921C2.89647 20.1133 2.74189 19.2894 2.72876 18.4581C2.66605 17.0727 2.65147 16.6819 2.65147 13.1294C2.65147 9.57542 2.65147 9.21229 2.72876 7.79917C2.73897 6.95917 2.89064 6.12792 3.1823 5.33896C3.6271 4.18833 4.53855 3.28271 5.68918 2.84229C6.46793 2.55354 7.29335 2.40042 8.12314 2.38875C9.51001 2.32604 9.89939 2.30854 13.4533 2.30854C17.0073 2.30854 17.3719 2.30854 18.7821 2.38875C19.6148 2.39896 20.4373 2.55208 21.2175 2.84229C22.3638 3.28417 23.2694 4.19125 23.7142 5.33896C24 6.11771 24.1546 6.94167 24.1677 7.77292C24.2304 9.15979 24.2465 9.54917 24.2465 13.1031C24.2465 16.6556 24.2465 17.0377 24.1838 18.4319H24.1677V18.4304Z" fill="#DCE2E5"/>
</svg>
