<svg width="66" height="67" viewBox="0 0 66 67" fill="none" xmlns="http://www.w3.org/2000/svg">
<path fill-rule="evenodd" clip-rule="evenodd" d="M0 33.2882C0 14.9004 14.7714 0 33 0C51.2169 0 65.9884 14.9004 66 33.2764C66 51.6642 51.2286 66.5646 33 66.5646C14.7714 66.5646 0 51.6642 0 33.2882ZM1.65294 33.2883C1.65294 15.8282 15.691 1.6675 33 1.6675C50.309 1.6675 64.3471 15.8164 64.3471 33.2883C64.3471 50.7485 50.309 64.9091 33 64.9091C15.691 64.9091 1.65294 50.7485 1.65294 33.2883Z" fill="white"/>
<path d="M16.6106 38.3958C17.3905 40.9438 18.7058 43.1865 20.3936 45.0182V37.2216L16.0169 30.7753C15.6561 33.2529 15.819 35.8478 16.6106 38.3958ZM25.4339 44.5837V35.6482L20.4286 28.2743V21.511C19.4974 22.5208 18.7058 23.6363 18.0423 24.8222L20.3936 28.286V37.2216L25.3989 44.5955V48.7991C26.6095 49.4096 27.9016 49.8676 29.2286 50.1729L25.4339 44.5837ZM30.4741 34.0748L35.4794 41.4487V50.3842L30.4741 43.0103V34.0748L25.4688 26.7009V17.7653L30.4741 25.1392V34.0748ZM35.5143 32.5014L30.509 25.1275V16.1919L35.5143 23.5658V32.5014L40.5196 39.8753V48.8108L35.5143 41.4369V32.5014ZM27.9249 16.7555C25.364 17.554 23.1291 18.9043 21.3016 20.6186L25.4339 26.7126V35.6482L30.4391 43.0221V50.4077C32.9185 50.7834 35.5143 50.6191 38.0751 49.8206C40.636 49.0222 42.8709 47.6718 44.6984 45.9575L40.5661 39.8635V30.928L35.5608 23.5541V16.1685C33.0815 15.7927 30.4741 15.9571 27.9249 16.7555ZM45.6063 38.2901V29.3546L40.6011 21.9807V17.7771C39.3905 17.1665 38.0984 16.7086 36.7714 16.4033L40.5545 21.9807V30.9162L45.5598 38.2901V45.0534C46.491 44.0436 47.2825 42.9281 47.946 41.7422L45.6063 38.2901ZM49.3894 28.1686C48.6095 25.6206 47.2942 23.3779 45.6063 21.5462V29.3546L49.9831 35.8008C50.3323 33.3116 50.1693 30.7166 49.3894 28.1686Z" fill="white"/>
<path fill-rule="evenodd" clip-rule="evenodd" d="M3.14286 33.2764C3.14286 16.65 16.5058 3.15857 33 3.15857C49.4825 3.15857 62.8571 16.65 62.8571 33.2882C62.8571 49.9146 49.4825 63.406 33 63.406C16.5058 63.406 3.13122 49.9146 3.14286 33.2764ZM14.3524 33.2764C14.3524 43.668 22.6984 52.0869 33 52.0869C43.2899 52.0869 51.636 43.668 51.6476 33.2764C51.6476 22.8849 43.3016 14.466 33 14.466C22.6984 14.466 14.3524 22.8849 14.3524 33.2764ZM13.8867 41.3344L13.037 39.5145L6.4719 42.8374L7.28672 44.5869L10.0338 43.1896C10.674 42.8609 11.1396 42.6026 11.1396 42.6026L11.1629 42.6378C11.1629 42.6378 10.9999 42.9196 10.7206 43.5419L9.57984 46.0429L9.60312 46.0781L12.3036 46.4891C12.9671 46.5948 13.2931 46.6183 13.2931 46.6183L13.3163 46.6535C13.3163 46.6535 12.8507 46.9118 12.2338 47.2758L9.57984 48.8375L10.5925 50.4813L16.9365 46.7474L15.8888 45.0449L12.9555 44.7748C12.5132 44.7396 12.1523 44.7161 12.1523 44.7161L12.129 44.6809C12.129 44.6809 12.3036 44.3521 12.5132 43.9646L13.8867 41.3344ZM17.8909 47.5779L19.3576 48.8929L16.4242 52.4155C15.947 53.0026 15.9703 53.6132 16.692 54.2003C17.4253 54.7756 18.0189 54.6582 18.4729 54.0476L21.1851 50.3372L22.7914 51.4644L20.0094 55.257C18.7406 56.9948 17.0877 56.6543 15.656 55.5271C14.2242 54.3881 13.5142 52.8499 14.8877 51.1943L17.8909 47.5779ZM20.8126 49.9849L19.0084 51.2531L18.9734 51.2296L19.7766 49.163L20.8126 49.9849ZM25.8179 52.8149L23.9089 52.1104L21.5692 59.1438L23.3618 59.8131L24.3629 56.7954C24.5724 56.1731 24.7354 55.586 24.7354 55.586L24.7936 55.5978C24.7936 55.5978 24.8983 56.0792 25.1311 56.8307L26.3534 60.7172L28.3322 61.1986L30.2296 54.0361L28.3671 53.5899L27.5872 56.5489C27.4126 57.2299 27.2846 57.7818 27.2846 57.7818L27.2264 57.77C27.2264 57.77 27.1333 57.3356 26.9005 56.5371L25.8179 52.8149ZM38.2031 58.5213C38.238 60.2826 37.1555 61.4803 35.0719 61.6329C33.128 61.7621 31.3005 60.8697 31.1957 58.0047C31.0909 55.1045 32.6856 54.0125 34.5481 53.8833C36.5735 53.7424 37.7491 54.8814 37.947 56.4313L35.9798 56.5605C35.7936 55.8912 35.4444 55.492 34.5714 55.5507C33.7565 55.6094 33.1978 56.3608 33.256 57.8521C33.3259 59.4137 33.9661 60.0126 34.874 59.9539C35.7819 59.8951 36.1777 59.449 36.2243 58.6505L38.2031 58.5213ZM40.4729 52.6973L38.6453 53.4018L41.4739 60.2356L43.3014 59.5311L42.184 56.8187L44.5702 55.7267L45.8623 58.3686L47.585 57.441L44.3258 50.7951L42.603 51.7227L43.7903 54.1533L41.5088 55.1983L40.4729 52.6973ZM45.4666 49.9264L48.982 46.533L50.1111 47.6485L47.9111 49.7738L48.7492 50.7131L50.8793 48.6466L51.9851 49.7386L49.7851 51.8638L50.7047 52.8971L53.1841 50.5018L54.3132 51.6173L50.3788 55.4216L45.4666 49.9264ZM50.8793 43.6914L49.8666 45.4762L56.3269 48.9753L57.2814 47.2962L54.511 45.7932C53.929 45.4762 53.3936 45.2179 53.3936 45.2179L53.4169 45.1709C53.4169 45.1709 53.8941 45.1474 54.674 45.0417L58.6782 44.4781L59.4814 42.5994L52.8116 39.4996L52.0666 41.2844L54.8253 42.5642C55.4539 42.8578 55.9777 43.0809 55.9777 43.0809L55.9544 43.1278C55.9544 43.1278 55.5237 43.1513 54.6973 43.2452L50.8793 43.6914ZM7.84542 20.9356L9.32373 21.5227L8.14807 24.8104L9.52161 25.2684L10.6274 22.192L12.0592 22.7674L10.9883 25.7498L13.5608 26.5952L13.002 28.4856L5.97135 26.1842L7.84542 20.9356ZM17.0761 20.4191C18.3449 18.7988 18.1238 17.2136 16.855 16.0512L15.6327 17.6128C16.1682 18.1764 16.273 18.74 15.7259 19.4446C15.2137 20.1021 14.2941 20.1373 13.1068 19.2449C11.873 18.3173 11.7449 17.4367 12.3036 16.7204C12.8624 16.0042 13.4211 15.969 14.0148 16.3095L15.237 14.7478C13.9682 13.8319 12.3269 13.9728 11.0465 15.605C9.83592 17.1549 9.53327 19.1745 11.8148 20.8771C14.1312 22.6149 15.9121 21.8986 17.0761 20.4191ZM21.674 7.66744C22.9777 7.05687 24.2465 6.92771 24.8052 8.26628C25.2592 9.35827 24.9682 9.83969 24.4094 10.3211L24.4327 10.3681C25.038 10.2272 25.8528 10.2507 26.365 11.4718C26.9819 12.9395 26.0391 13.7967 24.7354 14.3955L21.9883 15.6754L18.6941 9.05298L21.674 7.66744ZM22.7798 10.3446C23.292 10.1097 23.4317 9.86317 23.2338 9.37001C23.0359 8.8886 22.6983 8.85337 22.2094 9.08821L21.1153 9.60485L21.7322 10.8377L22.7798 10.3446ZM24.0253 13.057C24.5841 12.7986 24.7354 12.5755 24.5026 12.0119C24.2814 11.4835 23.8973 11.4718 23.3269 11.7301L22.3841 12.1763L23.0475 13.5031L24.0253 13.057ZM32.965 12.5286H35.0486L31.7312 5.24868L29.4613 5.44829L27.4243 13.1979L29.473 12.8339L29.8338 11.4249L32.3598 11.2018L32.965 12.5286ZM31.1608 8.32504L31.7894 9.76929L30.1481 9.89845L30.5206 8.37201C30.6603 7.85537 30.7418 7.39744 30.7418 7.39744H30.7767C30.7767 7.39744 30.9397 7.83188 31.1608 8.32504ZM36.8994 10.3563L35.1883 5.09594L37.3883 5.51864L38.0518 7.7496C38.1798 8.1723 38.2846 8.63023 38.2846 8.63023L38.3195 8.64198C38.3195 8.64198 38.6105 8.27798 38.8898 7.93746L40.4147 6.18793L42.5914 6.72805L38.8782 10.8025L38.3078 13.2565L36.3872 12.8338L36.8994 10.3563ZM48.7026 9.9219L44.0814 7.36217L40.7523 13.9611L45.1174 16.3799L45.9206 15.0061L43.1385 13.4679L43.7671 12.235L46.3163 13.6441L47.1079 12.3055L44.4772 10.8495L45.0475 9.72228L47.8994 11.2957L48.7026 9.9219ZM51.2635 11.9298L53.51 14.3487C54.6624 15.5933 54.9301 16.7792 53.5682 17.9886C52.6952 18.7636 52.055 18.975 51.2867 18.6697L50.1111 21.6521L48.7259 19.9378L49.7968 17.4955L49.1566 16.8027L47.4222 18.5523L46.0021 17.1902L51.2635 11.9298ZM50.2508 15.7225L51.0074 16.5444C51.4264 17.0023 51.7873 17.0141 52.2529 16.5914C52.7185 16.1804 52.7068 15.7812 52.2878 15.335L51.4846 14.4778L50.2508 15.7225ZM52.4391 26.5482L53.1142 28.4857L59.982 25.8672L59.3534 24.0355L56.4084 25.1627C55.7915 25.4093 55.2444 25.6441 55.2444 25.6441L55.2211 25.5854C55.2211 25.5854 55.5354 25.1862 55.9544 24.5404L58.1428 21.1235L57.2581 19.28L50.565 22.3329L51.4031 24.0707L54.1735 22.8026C54.8137 22.5208 55.3142 22.2625 55.3142 22.2625L55.3375 22.3212C55.3375 22.3212 55.0698 22.6734 54.6042 23.3545L52.4391 26.5482Z" fill="white"/>
</svg>
