<svg width="28" height="24" viewBox="0 0 28 24" fill="none" xmlns="http://www.w3.org/2000/svg">
<path d="M5.68506 16.3929L6.36334 15.6581L5.68506 16.3929ZM5.97239 7.92883L5.29411 7.19403L5.97239 7.92883ZM5.68502 15.3929H2V17.3929H5.68502V15.3929ZM2 15.3929V9.19403H0V15.3929H2ZM2 9.19403H5.29411V7.19403H2V9.19403ZM6.65067 8.66363L12.2983 3.45046L10.9417 1.98086L5.29411 7.19403L6.65067 8.66363ZM12.2983 3.45046V21.1365H14.2983V3.45046H12.2983ZM12.2983 21.1365L6.36334 15.6581L5.00678 17.1277L10.9417 22.6061L12.2983 21.1365ZM6.36334 15.6581C6.56999 15.8489 6.68505 16.116 6.68505 16.3929H4.68505C4.68505 16.6699 4.80011 16.937 5.00678 17.1277L6.36334 15.6581ZM12.2983 21.1365V21.1365L10.9417 22.6061C12.2229 23.7887 14.2983 22.88 14.2983 21.1365H12.2983ZM12.2983 3.45046V3.45046H14.2983C14.2983 1.70695 12.2229 0.798264 10.9417 1.98086L12.2983 3.45046ZM5.29411 9.19403C5.79689 9.19403 6.28123 9.00466 6.65067 8.66363L5.29411 7.19403H5.29411V9.19403ZM2 9.19403V7.19403C0.89543 7.19403 0 8.08946 0 9.19403H2ZM2 15.3929H2H0C0 16.4975 0.895431 17.3929 2 17.3929V15.3929ZM5.68502 17.3929C5.13275 17.3929 4.68505 16.9452 4.68505 16.3929H6.68505C6.68505 15.8406 6.23732 15.3929 5.68502 15.3929V17.3929Z" fill="white"/>
<path d="M17.3977 8.94482C18.5828 9.4117 19.7402 10.4262 19.7402 12.4081C19.7402 14.3899 18.5828 15.4044 17.3977 15.8713" stroke="white" stroke-width="2" stroke-linecap="round"/>
<path d="M19.7402 1.91724C23.2954 3.33832 26.7678 6.42631 26.7678 12.4586C26.7678 18.4909 23.2954 21.5789 19.7402 23" stroke="white" stroke-width="2" stroke-linecap="round"/>
<path d="M18.569 5.43091C20.9391 6.3783 23.254 8.43696 23.254 12.4585C23.254 16.48 20.9391 18.5387 18.569 19.4861" stroke="white" stroke-width="2" stroke-linecap="round"/>
</svg>
