<svg width="107" height="26" viewBox="0 0 107 26" fill="none" xmlns="http://www.w3.org/2000/svg">
<path d="M0.0999756 4.90403V24.728H1.44398V4.90403H0.0999756ZM10.46 14.732L15.192 4.90403H13.708L10.04 12.52L6.39998 4.90403H4.91598L9.61998 14.732H10.46ZM18.664 4.90403V24.728H20.008V4.90403H18.664ZM14.828 12.24L10.74 20.248H9.31198L5.25198 12.24H4.41198V24.728H5.75598V16.076L8.47198 21.48H11.58L14.324 16.104L14.296 24.728H15.64L15.668 12.24H14.828Z" fill="#DB052C"/>
<path d="M30.7972 3.67203H32.1412L36.1732 0.900027V0.228027H34.8292L30.7972 3.00003V3.67203ZM24.2172 24.728H38.5532V23.496H25.5612V6.13603H38.5532V4.90403H24.2172V24.728ZM28.7532 13.36H36.3692V12.128H30.0972V10.196H38.5532V8.96403H28.7532V13.36ZM28.7532 20.668H38.5532V19.436H30.0972V17.448H36.3692V16.216H28.7532V20.668Z" fill="#DB052C"/>
<path d="M41.1141 24.728H41.9541L47.6661 14.732L42.0101 4.90403H41.1701V6.13603L46.0981 14.732L41.1141 23.496V24.728ZM49.1781 11.512H50.0181L53.5181 4.90403H52.1181L49.5981 9.86003L47.0781 4.90403H45.6781L49.1781 11.512ZM57.2421 24.728H58.0821V23.496L53.0981 14.732L58.0261 6.13603V4.90403H57.1861L51.5301 14.732L57.2421 24.728ZM45.5941 24.728H46.9941L49.5981 19.632L52.2021 24.728H53.6021L49.9901 17.952H49.1781L45.5941 24.728Z" fill="#DB052C"/>
<path d="M61.0492 24.728H62.3932V4.90403H61.0492V24.728ZM65.6132 24.728H66.9572V4.90403H65.6132V24.728Z" fill="#DB052C"/>
<path d="M78.8384 25.092C83.6824 25.092 86.9584 22.096 86.9584 17.672V16.636H85.6424V17.644C85.6424 21.396 82.9264 23.86 78.8384 23.86C74.5824 23.86 71.9224 21.284 71.9224 17.14V12.492C71.9224 8.34803 74.5824 5.77203 78.8384 5.77203C82.9264 5.77203 85.6424 8.23603 85.6424 11.988V12.968H86.9584V11.988C86.9584 7.56403 83.6824 4.54003 78.8384 4.54003C73.8264 4.54003 70.5784 7.64803 70.5784 12.492V17.14C70.5784 21.984 73.8264 25.092 78.8384 25.092ZM78.8384 20.948C81.0224 20.948 82.3664 19.604 82.3664 17.42V16.636H81.0504V17.42C81.0504 18.96 80.3224 19.716 78.8384 19.716C77.2144 19.716 76.5144 18.932 76.5144 17.14V12.492C76.5144 10.728 77.2424 9.94403 78.8384 9.94403C80.3224 9.94403 81.0504 10.7 81.0504 12.24V12.968H82.3664V12.24C82.3664 10.056 81.0224 8.71203 78.8384 8.71203C76.4584 8.71203 75.1704 10.056 75.1704 12.492V17.14C75.1704 19.604 76.4584 20.948 78.8384 20.948Z" fill="#DB052C"/>
<path d="M98.3944 25.092C103.434 25.092 106.85 21.9 106.85 17.14V12.52C106.85 7.76003 103.434 4.54003 98.3944 4.54003C93.3264 4.54003 89.9104 7.76003 89.9104 12.52V17.14C89.9104 21.872 93.3264 25.092 98.3944 25.092ZM98.3944 23.86C94.0824 23.86 91.2544 21.2 91.2544 17.14V12.52C91.2544 8.43203 94.0824 5.77203 98.3944 5.77203C102.678 5.77203 105.506 8.43203 105.506 12.52V17.14C105.506 21.228 102.706 23.86 98.3944 23.86ZM98.3944 20.92C100.914 20.92 102.258 19.604 102.258 17.14V12.52C102.258 10.084 100.858 8.71203 98.3944 8.71203C95.9024 8.71203 94.5024 10.084 94.5024 12.52V17.14C94.5024 19.576 95.8744 20.92 98.3944 20.92ZM98.3944 19.688C96.6584 19.688 95.8464 18.876 95.8464 17.14V12.52C95.8464 10.784 96.6584 9.94403 98.3944 9.94403C100.102 9.94403 100.914 10.784 100.914 12.52V17.14C100.914 18.904 100.158 19.688 98.3944 19.688Z" fill="#DB052C"/>
</svg>
