<svg width="44" height="44" viewBox="0 0 44 44" fill="none" xmlns="http://www.w3.org/2000/svg">
<path d="M22.0108 34.8554H21.9742C21.8605 34.8554 10.4883 34.8334 7.61918 34.0542C6.04145 33.6292 4.80932 32.3964 4.38518 30.8184C3.86924 27.9077 3.62009 24.9561 3.64085 22.0001C3.62752 19.0393 3.8834 16.0834 4.40535 13.1689C4.84114 11.5895 6.06786 10.351 7.64301 9.90008C10.4333 9.16675 21.492 9.16675 21.9613 9.16675H21.9998C22.1153 9.16675 33.5168 9.18875 36.3567 9.96791C37.9311 10.3951 39.1607 11.6254 39.587 13.2001C40.1194 16.1216 40.3692 19.0875 40.3332 22.0569C40.346 25.0141 40.0895 27.9664 39.5668 30.8771C39.1372 32.4531 37.9043 33.6832 36.3273 34.1092C33.5407 34.8481 22.4802 34.8554 22.0108 34.8554ZM18.3442 16.5092L18.335 27.5092L27.8903 22.0092L18.3442 16.5092Z" fill="#DCE2E5"/>
</svg>
