<svg width="185" height="47" viewBox="0 0 185 47" fill="none" xmlns="http://www.w3.org/2000/svg">
<path d="M23.3007 0C10.4298 0 0 10.5209 0 23.5041C0 36.4791 10.4298 47 23.3007 47C36.1715 47 46.6014 36.4791 46.6014 23.4959C46.5931 10.5209 36.1633 0 23.3007 0Z" fill="#0067B2"/>
<path d="M23.3007 1.17725C11.0791 1.17725 1.16708 11.1758 1.16708 23.5041C1.16708 35.8324 11.0791 45.831 23.3007 45.831C35.5222 45.831 45.4343 35.8324 45.4343 23.5041C45.4343 11.1675 35.5222 1.17725 23.3007 1.17725Z" fill="white"/>
<path d="M23.3007 2.23022C11.6545 2.23022 2.21912 11.7562 2.21912 23.4959C2.2109 35.2438 11.6545 44.7698 23.3007 44.7698C34.9387 44.7698 44.3823 35.2438 44.3823 23.5042C44.3823 11.7562 34.9387 2.23022 23.3007 2.23022ZM23.3007 36.7776C16.0269 36.7776 10.134 30.8332 10.134 23.4959C10.134 16.1586 16.0269 10.2142 23.3007 10.2142C30.5744 10.2142 36.4674 16.1586 36.4674 23.4959C36.4592 30.8332 30.5662 36.7776 23.3007 36.7776Z" fill="#DB052C"/>
<path d="M11.7284 27.1106C12.2791 28.9097 13.2078 30.4932 14.3996 31.7865V26.2815L11.3092 21.7299C11.0545 23.4792 11.1695 25.3115 11.7284 27.1106ZM17.9584 31.4798V25.1705L14.4242 19.964V15.1885C13.7667 15.9015 13.2078 16.6892 12.7393 17.5265L14.3996 19.9723V26.2815L17.9337 31.4881V34.4561C18.7885 34.8872 19.7008 35.2106 20.6377 35.4261L17.9584 31.4798ZM21.5172 24.0596L25.0513 29.2662V35.5754L21.5172 30.3688V24.0596L17.983 18.853V12.5438L21.5172 17.7504V24.0596ZM25.076 22.9486L21.5418 17.7421V11.4328L25.076 16.6394V22.9486L28.6101 28.1552V34.4644L25.076 29.2579V22.9486ZM19.7172 11.8308C17.909 12.3946 16.331 13.348 15.0406 14.5584L17.9584 18.8613V25.1705L21.4925 30.3771V35.592C23.2431 35.8573 25.076 35.7412 26.8841 35.1774C28.6923 34.6137 30.2703 33.6602 31.5607 32.4498L28.643 28.1469V21.8377L25.1088 16.6311V11.4163C23.3582 11.151 21.5172 11.267 19.7172 11.8308ZM32.2018 27.036V20.7267L28.6676 15.5202V12.5521C27.8129 12.121 26.9006 11.7976 25.9636 11.5821L28.6348 15.5202V21.8294L32.1689 27.036V31.8114C32.8264 31.0984 33.3853 30.3108 33.8538 29.4734L32.2018 27.036ZM34.8729 19.8894C34.3223 18.0903 33.3935 16.5068 32.2018 15.2134V20.7267L35.2921 25.2783C35.5387 23.5207 35.4236 21.6884 34.8729 19.8894Z" fill="#0067B2"/>
<path d="M9.20521 27.9004L9.80519 29.1854L8.83536 31.0426C8.68742 31.3162 8.56413 31.5483 8.56413 31.5483L8.58057 31.5732C8.58057 31.5732 8.83536 31.5897 9.14768 31.6146L11.2188 31.8053L11.9586 33.0075L7.47923 35.6439L6.76419 34.4832L8.6381 33.3805C9.07371 33.1235 9.40247 32.9411 9.40247 32.9411L9.38603 32.9163C9.38603 32.9163 9.1559 32.8997 8.68742 32.8251L6.78063 32.5349L6.76419 32.51L7.56964 30.7441C7.7669 30.3047 7.88196 30.1057 7.88196 30.1057L7.86552 30.0808C7.86552 30.0808 7.53677 30.2632 7.08473 30.4954L5.14506 31.482L4.56973 30.2467L9.20521 27.9004Z" fill="white"/>
<path d="M12.6325 33.594L13.6681 34.5226L11.5969 37.0098C11.2599 37.4243 11.2764 37.8554 11.786 38.2699C12.3038 38.6762 12.7229 38.5933 13.0435 38.1622L14.9585 35.5423L16.0927 36.3382L14.1284 39.0161C13.2325 40.2431 12.0654 40.0027 11.0545 39.2068C10.0435 38.4026 9.54219 37.3165 10.512 36.1475L12.6325 33.594ZM14.6955 35.2936L13.4215 36.189L13.3969 36.1724L13.964 34.7132L14.6955 35.2936Z" fill="white"/>
<path d="M16.8817 36.7942L18.2296 37.2916L18.9939 39.9198C19.1583 40.4836 19.2241 40.7903 19.2241 40.7903L19.2652 40.7986C19.2652 40.7986 19.3556 40.4089 19.4789 39.9281L20.0295 37.8388L21.3446 38.1539L20.0049 43.2112L18.6077 42.8713L17.7447 40.1271C17.5803 39.5964 17.5063 39.2565 17.5063 39.2565L17.4652 39.2482C17.4652 39.2482 17.3502 39.6628 17.2022 40.1022L16.4954 42.2329L15.2297 41.7603L16.8817 36.7942Z" fill="white"/>
<path d="M26.9745 41.3207C26.9992 42.5643 26.2348 43.41 24.7636 43.5178C23.3911 43.609 22.1007 42.9789 22.0267 40.956C21.9528 38.9082 23.0788 38.1371 24.3938 38.0459C25.8239 37.9464 26.654 38.7506 26.7937 39.845L25.4047 39.9362C25.2732 39.4636 25.0266 39.1817 24.4102 39.2232C23.8349 39.2647 23.4404 39.7953 23.4815 40.8482C23.5308 41.9508 23.9828 42.3737 24.6239 42.3322C25.265 42.2908 25.5444 41.9757 25.5773 41.4119L26.9745 41.3207Z" fill="white"/>
<path d="M27.2869 37.706L28.5772 37.2086L29.3087 38.9745L30.9196 38.2366L30.0813 36.5204L31.2977 35.8655L33.599 40.558L32.3826 41.213L31.4703 39.3476L29.7854 40.1186L30.5744 42.0338L29.2841 42.5312L27.2869 37.706Z" fill="white"/>
<path d="M32.1031 35.252L34.5853 32.856L35.3825 33.6436L33.8291 35.1442L34.4209 35.8074L35.925 34.3483L36.7057 35.1193L35.1524 36.6199L35.8017 37.3495L37.5523 35.6582L38.3495 36.4458L35.5715 39.132L32.1031 35.252Z" fill="white"/>
<path d="M35.2099 32.1099L35.9249 30.8497L38.6208 30.5346C39.2043 30.4683 39.5084 30.4517 39.5084 30.4517L39.5248 30.4186C39.5248 30.4186 39.155 30.261 38.7112 30.0538L36.7633 29.1501L37.2893 27.8899L41.9988 30.0786L41.4316 31.4051L38.6043 31.8031C38.0537 31.8777 37.7167 31.8943 37.7167 31.8943L37.7002 31.9275C37.7002 31.9275 38.0783 32.1099 38.4893 32.3337L40.4454 33.3949L39.7714 34.5805L35.2099 32.1099Z" fill="white"/>
<path d="M5.53956 14.7822L6.58336 15.1968L5.75325 17.5182L6.72308 17.8415L7.50388 15.6693L8.51481 16.0756L7.75867 18.1814L9.57505 18.7783L9.18054 20.1131L4.21631 18.4882L5.53956 14.7822Z" fill="white"/>
<path d="M11.901 11.3334C12.7969 12.1542 12.953 13.2734 12.0572 14.4175C11.2353 15.4622 9.97779 15.9679 8.34222 14.7409C6.73131 13.5387 6.945 12.1127 7.79977 11.0183C8.70386 9.86593 9.86273 9.76644 10.7586 10.4131L9.8956 11.5158C9.47644 11.2753 9.08193 11.3002 8.68742 11.8059C8.29291 12.3117 8.38332 12.9335 9.25452 13.5885C10.0929 14.2185 10.7422 14.1937 11.1038 13.7294C11.4901 13.232 11.4161 12.834 11.038 12.436L11.901 11.3334Z" fill="white"/>
<path d="M15.3036 5.41365C16.2242 4.98254 17.12 4.89134 17.5145 5.83648C17.8351 6.60751 17.6296 6.94743 17.2351 7.28735L17.2515 7.32052C17.6789 7.22103 18.2542 7.23761 18.6159 8.09984C19.0515 9.13618 18.3857 9.7414 17.4652 10.1642L15.5255 11.0679L13.1996 6.39196L15.3036 5.41365ZM16.0844 7.30393C16.4461 7.13812 16.5447 6.96402 16.405 6.61581C16.2652 6.27589 16.0269 6.25101 15.6817 6.41683L14.9091 6.78162L15.3447 7.65214L16.0844 7.30393ZM16.9639 9.21909C17.3584 9.03669 17.4652 8.87917 17.3008 8.48121C17.1447 8.10813 16.8734 8.09984 16.4707 8.28224L15.805 8.59728L16.2735 9.53413L16.9639 9.21909Z" fill="white"/>
<path d="M24.7472 8.84605H23.276L22.8486 7.9092L21.0651 8.06672L20.8103 9.06161L19.3638 9.31862L20.8021 3.84675L22.4048 3.70581L24.7472 8.84605ZM22.4459 6.89773L22.0021 5.87798C21.8459 5.52977 21.7309 5.22301 21.7309 5.22301H21.7062C21.7062 5.22301 21.6487 5.54635 21.55 5.91114L21.287 6.98893L22.4459 6.89773Z" fill="white"/>
<path d="M26.054 7.31238L24.8458 3.59814L26.3992 3.89661L26.8677 5.47184C26.9581 5.77031 27.0321 6.09365 27.0321 6.09365L27.0567 6.10194C27.0567 6.10194 27.2622 5.84492 27.4594 5.60449L28.5361 4.36918L30.0731 4.75055L27.4512 7.62743L27.0485 9.36018L25.6924 9.06172L26.054 7.31238Z" fill="white"/>
<path d="M31.1251 5.19824L34.388 7.00562L33.8209 7.97563L31.8073 6.86467L31.4045 7.66058L33.262 8.68863L32.7031 9.63377L30.9032 8.63888L30.4594 9.50941L32.4237 10.5955L31.8566 11.5655L28.7745 9.85762L31.1251 5.19824Z" fill="white"/>
<path d="M36.1962 8.42334L37.7824 10.1312C38.5961 11.01 38.7851 11.8474 37.8235 12.7013C37.2071 13.2485 36.7551 13.3978 36.2126 13.1822L35.3825 15.288L34.4045 14.0776L35.1606 12.3531L34.7086 11.864L33.4839 13.0993L32.4812 12.1376L36.1962 8.42334ZM35.4811 11.1012L36.0154 11.6816C36.3113 12.0049 36.566 12.0132 36.8948 11.7148C37.2235 11.4246 37.2153 11.1427 36.9195 10.8276L36.3523 10.2224L35.4811 11.1012Z" fill="white"/>
<path d="M37.503 20.1132L37.0263 18.7452L38.555 16.4902C38.8838 16.0093 39.0728 15.7606 39.0728 15.7606L39.0564 15.7191C39.0564 15.7191 38.7029 15.9015 38.2509 16.1005L36.2948 16.9959L35.703 15.7689L40.4289 13.6133L41.0536 14.9149L39.5084 17.3275C39.2125 17.7835 38.9906 18.0654 38.9906 18.0654L39.007 18.1068C39.007 18.1068 39.3933 17.941 39.8289 17.7669L41.9083 16.971L42.3522 18.2644L37.503 20.1132Z" fill="white"/>
<path d="M98.545 33.7763V38.4191H96.8026V33.7763L92.6274 26.6794H94.6739L96.4821 29.9128C96.5807 30.0952 96.6875 30.2942 96.8026 30.518C96.9177 30.7419 97.0327 30.9657 97.1478 31.1813C97.2629 31.3969 97.3697 31.6041 97.4519 31.7948C97.5423 31.9855 97.6163 32.1347 97.6656 32.2508C97.7067 32.143 97.7807 31.9938 97.8711 31.8031C97.9615 31.6207 98.0683 31.4217 98.1752 31.2062C98.282 30.9906 98.4053 30.7751 98.5204 30.5512C98.6436 30.3274 98.7505 30.1201 98.8491 29.9294L100.674 26.6794H102.687L98.545 33.7763Z" fill="#DB052C"/>
<path d="M113.356 32.541C113.356 33.4613 113.232 34.2903 112.986 35.0282C112.739 35.7744 112.402 36.4128 111.967 36.9434C111.531 37.474 111.005 37.8885 110.397 38.1787C109.789 38.4688 109.115 38.6181 108.367 38.6181C107.635 38.6181 106.961 38.4771 106.353 38.187C105.745 37.9051 105.219 37.4988 104.791 36.9682C104.356 36.4459 104.027 35.8075 103.789 35.0614C103.55 34.3152 103.435 33.4861 103.435 32.5742C103.435 31.6539 103.559 30.8248 103.797 30.0869C104.043 29.3408 104.38 28.7024 104.816 28.1718C105.252 27.6412 105.778 27.2267 106.386 26.9365C106.994 26.6463 107.668 26.4971 108.4 26.4971C109.139 26.4971 109.821 26.638 110.43 26.9282C111.038 27.2101 111.564 27.6163 111.991 28.1469C112.427 28.6692 112.756 29.3076 112.994 30.0538C113.232 30.7917 113.356 31.6207 113.356 32.541ZM111.572 32.5742C111.572 31.9026 111.49 31.3057 111.334 30.7751C111.169 30.2445 110.947 29.7885 110.66 29.4154C110.372 29.0423 110.027 28.7521 109.641 28.5532C109.246 28.3542 108.819 28.2547 108.35 28.2547C107.882 28.2547 107.463 28.3542 107.076 28.5449C106.69 28.7438 106.361 29.0257 106.09 29.3905C105.811 29.7636 105.597 30.2113 105.441 30.7419C105.285 31.2725 105.211 31.8777 105.211 32.541C105.211 33.2125 105.293 33.8095 105.449 34.3401C105.613 34.8707 105.835 35.3267 106.115 35.6998C106.394 36.0728 106.739 36.363 107.126 36.562C107.52 36.761 107.947 36.8605 108.416 36.8605C108.884 36.8605 109.304 36.761 109.69 36.5703C110.076 36.3713 110.405 36.0894 110.684 35.7246C110.964 35.3515 111.186 34.9038 111.342 34.3732C111.498 33.8426 111.572 33.2457 111.572 32.5742Z" fill="#DB052C"/>
<path d="M123.424 37.3081C122.659 38.1787 121.55 38.6098 120.095 38.6098C118.657 38.6098 117.564 38.1621 116.832 37.2667C116.092 36.3713 115.723 35.1111 115.723 33.4944V26.6877H117.465V33.4447C117.465 34.5639 117.687 35.4096 118.139 35.9816C118.591 36.5537 119.249 36.8439 120.128 36.8439C121.048 36.8439 121.722 36.5703 122.166 36.0148C122.602 35.4593 122.824 34.6385 122.824 33.5607V26.6877H124.566V33.5276C124.574 35.1774 124.188 36.4459 123.424 37.3081Z" fill="#DB052C"/>
<path d="M131.922 28.4122V38.4274H130.18V28.4122H126.785V26.6877H135.317V28.4122H131.922Z" fill="#DB052C"/>
<path d="M144.703 38.4274V33.1959H139.352V38.4274H137.61V26.6877H139.352V31.43H144.703V26.6877H146.445V38.4274H144.703Z" fill="#DB052C"/>
<path d="M160.688 38.0294C160.006 38.4191 159.225 38.6098 158.338 38.6098C157.582 38.6098 156.908 38.4605 156.299 38.1621C155.691 37.8636 155.182 37.4491 154.754 36.9102C154.327 36.3713 153.998 35.7329 153.768 34.995C153.538 34.2572 153.423 33.4447 153.423 32.5493C153.423 31.6622 153.538 30.8497 153.768 30.1118C153.998 29.3656 154.327 28.7273 154.754 28.1884C155.182 27.6495 155.699 27.2349 156.299 26.9365C156.899 26.638 157.582 26.4888 158.338 26.4888C159.291 26.4888 160.088 26.6795 160.729 27.0525C161.371 27.4256 161.897 27.9728 162.291 28.6858L160.746 29.6558C160.45 29.175 160.121 28.8185 159.768 28.5946C159.414 28.3625 158.938 28.2547 158.338 28.2547C157.319 28.2547 156.546 28.6444 156.012 29.4154C155.478 30.1864 155.215 31.2311 155.215 32.5493C155.215 33.8675 155.478 34.9121 156.012 35.6832C156.546 36.4542 157.319 36.8439 158.338 36.8439C158.946 36.8439 159.456 36.7195 159.85 36.4708C160.253 36.2221 160.598 35.8656 160.894 35.3847L162.34 36.3547C161.921 37.0843 161.371 37.6398 160.688 38.0294Z" fill="#DB052C"/>
<path d="M172.302 37.3081C171.537 38.1787 170.428 38.6098 168.973 38.6098C167.535 38.6098 166.442 38.1621 165.71 37.2667C164.97 36.3713 164.601 35.1111 164.601 33.4944V26.6877H166.343V33.4447C166.343 34.5639 166.565 35.4096 167.017 35.9816C167.469 36.5537 168.127 36.8439 169.006 36.8439C169.926 36.8439 170.6 36.5703 171.044 36.0148C171.48 35.4593 171.702 34.6385 171.702 33.5607V26.6877H173.444V33.5276C173.452 35.1774 173.066 36.4459 172.302 37.3081Z" fill="#DB052C"/>
<path d="M185 30.3605C185 30.9657 184.91 31.4964 184.721 31.9523C184.532 32.4083 184.269 32.798 183.923 33.113C183.578 33.4281 183.175 33.6602 182.699 33.8177C182.23 33.9753 181.712 34.0499 181.145 34.0499H178.104V38.4274H176.395V26.6877H181.269C181.803 26.6877 182.296 26.7624 182.756 26.9199C183.216 27.0774 183.611 27.3095 183.948 27.6163C184.277 27.9231 184.54 28.3044 184.729 28.7687C184.91 29.2247 185 29.7553 185 30.3605ZM183.225 30.3605C183.225 29.7139 183.044 29.2164 182.682 28.8682C182.321 28.52 181.836 28.3459 181.228 28.3459H178.104V32.3835H181.228C181.893 32.3835 182.395 32.2011 182.723 31.8446C183.06 31.4881 183.225 30.9906 183.225 30.3605Z" fill="#DB052C"/>
<path d="M153.447 15.1802H157.409V12.9003H153.447V10.869H159.201V8.57251H151.122V20.3039H159.447V18.0073H153.447V15.1802Z" fill="#DB052C"/>
<path d="M171.34 12.295C171.34 11.1012 170.962 10.1809 170.214 9.53423C169.458 8.89585 168.505 8.57251 167.338 8.57251H161.921V20.3039H164.247V16.0839H166.59L168.669 20.3039H171.34L169.113 15.744C170.6 15.1553 171.34 14.0029 171.34 12.295ZM167.288 13.8703H164.247V10.8525H167.288C167.822 10.8525 168.225 10.9685 168.521 11.209C168.809 11.4494 168.957 11.8225 168.957 12.3365C168.948 13.3645 168.398 13.8703 167.288 13.8703Z" fill="#DB052C"/>
<path d="M132.851 8.57251L128.396 20.3039H130.887L131.799 17.6923H136.048L136.96 20.3039H139.516L135.095 8.57251H132.851ZM132.604 15.4621L133.352 13.3314C133.492 12.9085 133.615 12.5438 133.714 12.237C133.812 11.9302 133.886 11.6898 133.928 11.5074C133.969 11.6898 134.043 11.9302 134.141 12.237C134.24 12.5438 134.363 12.9085 134.503 13.3314L135.251 15.4621H132.604Z" fill="#DB052C"/>
<path d="M145.146 11.3582C144.924 11.7478 144.686 12.1707 144.431 12.635C144.177 13.0909 143.996 13.4309 143.881 13.6547C143.807 13.4889 143.725 13.3314 143.642 13.1821C143.56 13.0329 143.445 12.8174 143.297 12.5438C143.149 12.2702 143.026 12.0546 142.935 11.8971C142.837 11.7396 142.738 11.5655 142.631 11.3582L140.988 8.57251H138.316L142.722 15.7108V20.3039H145.048V15.6611L149.453 8.57251H146.79L145.146 11.3582Z" fill="#DB052C"/>
<path d="M107.528 10.7198C108.038 10.7198 108.465 10.8276 108.819 11.0432C109.164 11.2587 109.443 11.5738 109.657 11.9883L111.819 10.9851C111.432 10.1726 110.89 9.53425 110.191 9.07827C109.493 8.62228 108.621 8.39014 107.569 8.39014C106.813 8.39014 106.123 8.53937 105.49 8.82954C104.857 9.11972 104.315 9.53425 103.846 10.0814C103.378 10.6203 103.024 11.267 102.778 12.0132C102.531 12.7593 102.408 13.5718 102.408 14.4506C102.408 15.3626 102.531 16.2 102.77 16.9461C103.016 17.6923 103.361 18.3307 103.805 18.8613C104.249 19.3919 104.791 19.7981 105.416 20.08C106.041 20.3619 106.731 20.5029 107.487 20.5029C108.515 20.5029 109.386 20.2707 110.101 19.8147C110.816 19.3587 111.375 18.7038 111.786 17.8581L109.821 16.6891C109.509 17.228 109.18 17.6094 108.835 17.8332C108.49 18.0654 108.054 18.1732 107.545 18.1732C106.69 18.1732 106.016 17.825 105.523 17.1285C105.03 16.4321 104.783 15.5367 104.783 14.4589C104.783 13.3397 105.03 12.4443 105.515 11.7645C106.008 11.0597 106.674 10.7198 107.528 10.7198Z" fill="#DB052C"/>
<path d="M180.743 13.5386C180.743 13.6713 180.751 14.177 180.759 15.0476C180.767 15.6528 180.775 16.001 180.775 16.1005C180.71 15.9678 180.603 15.7771 180.455 15.5367C180.307 15.2963 180.151 15.0558 180.003 14.8237C179.995 14.7988 179.978 14.7822 179.97 14.774L175.852 8.57251H173.625V20.3039H175.918V15.147C175.918 15.0144 175.91 14.5087 175.902 13.6381C175.893 13.0329 175.885 12.6847 175.885 12.5852C175.951 12.7179 176.058 12.9085 176.206 13.149C176.354 13.3894 176.51 13.6215 176.666 13.862C176.674 13.8869 176.691 13.9034 176.699 13.9117L180.973 20.3122H183.052V8.57251H180.759V13.5386H180.743Z" fill="#DB052C"/>
<path d="M125.799 13.9532C126.185 13.721 126.489 13.406 126.703 13.008C126.917 12.6101 127.024 12.1707 127.024 11.6732C127.024 10.6783 126.695 9.9156 126.046 9.37671C125.388 8.83781 124.492 8.57251 123.333 8.57251H117.999V20.3039H123.284C124.558 20.3039 125.569 19.9722 126.309 19.3173C127.048 18.6623 127.418 17.7254 127.418 16.515C127.418 15.9015 127.27 15.3792 126.983 14.9398C126.687 14.5087 126.292 14.177 125.799 13.9532ZM120.276 10.7364H123.235C123.736 10.7364 124.098 10.8276 124.32 11.01C124.542 11.1924 124.657 11.4743 124.657 11.8556C124.657 12.2038 124.55 12.4691 124.344 12.6681C124.131 12.8671 123.802 12.9583 123.35 12.9583H120.276V10.7364ZM124.615 17.6674C124.336 17.941 123.925 18.082 123.366 18.082H120.276V15.0476H123.366C124.476 15.0476 125.026 15.5533 125.026 16.5565C125.026 17.0207 124.895 17.3938 124.615 17.6674Z" fill="#DB052C"/>
<path d="M93.1945 20.3039H95.5204V15.3626H99.6464V13.0827H95.5204V10.869H101.512V8.57251H93.1945V20.3039Z" fill="#DB052C"/>
</svg>
