<svg width="90" height="21" viewBox="0 0 90 21" fill="none" xmlns="http://www.w3.org/2000/svg">
<path d="M9.17004 5.16H7.77504L4.65504 11.265L1.56504 5.16H0.170044V15H1.32504V7.2L4.35504 13.065H4.95504L8.01504 7.2V15H9.17004V5.16Z" fill="white"/>
<path d="M11.3879 6.075H12.6779V4.83H11.3879V6.075ZM11.4479 15H12.6029V7.59H11.4479V15Z" fill="white"/>
<path d="M24.6089 11.655V10.395C24.6089 8.58 23.3939 7.425 21.5039 7.425C19.5839 7.425 18.3689 8.58 18.3689 10.425V12.18C18.3689 14.01 19.5689 15.165 21.5039 15.165C23.3339 15.165 24.5339 14.235 24.6089 12.75H23.4389C23.4089 13.605 22.6439 14.16 21.5039 14.16C20.2889 14.16 19.5239 13.44 19.5239 12.285V11.655H24.6089ZM21.5039 8.4C22.6739 8.4 23.4539 9.15 23.4539 10.305V10.77H19.5239V10.32C19.5239 9.15 20.3039 8.4 21.5039 8.4Z" fill="white"/>
<path d="M31.3976 7.59L31.3376 8.535C30.8576 7.83 30.0326 7.41 29.0276 7.41C27.3026 7.41 26.1326 8.535 26.1326 10.35V12.21C26.1326 14.07 27.2576 15.165 29.0276 15.165C30.0176 15.165 30.8276 14.76 31.3076 14.1V17.55H32.4476V7.59H31.3976ZM29.3126 14.085C28.0526 14.085 27.3026 13.35 27.3026 12.09V10.485C27.3026 9.24 28.0826 8.505 29.3126 8.505C30.4526 8.505 31.3076 9.315 31.3076 10.485V12.12C31.3076 13.29 30.4676 14.085 29.3126 14.085Z" fill="white"/>
<path d="M39.4804 7.59V12.15C39.4804 13.275 38.6704 14.07 37.5304 14.07C36.3754 14.07 35.6854 13.35 35.6854 12.15V7.59H34.5304V12.27C34.5304 14.085 35.5354 15.165 37.2154 15.165C38.2204 15.165 39.0304 14.775 39.5254 14.1L39.5854 15H40.6354V7.59H39.4804Z" fill="white"/>
<path d="M42.8088 6.075H44.0988V4.83H42.8088V6.075ZM42.8688 15H44.0238V7.59H42.8688V15Z" fill="white"/>
<path d="M49.6876 7.425C48.6676 7.425 47.8426 7.845 47.3626 8.535L47.3026 7.59H46.2526V17.55H47.4076V14.085C47.8876 14.76 48.6976 15.165 49.6876 15.165C51.4426 15.165 52.5826 14.01 52.5826 12.225V10.38C52.5826 8.55 51.4876 7.425 49.6876 7.425ZM51.3976 12.105C51.3976 13.32 50.6476 14.085 49.4026 14.085C48.2326 14.085 47.4076 13.245 47.4076 12.105V10.455C47.4076 9.315 48.2176 8.505 49.4026 8.505C50.6626 8.505 51.3976 9.225 51.3976 10.5V12.105Z" fill="white"/>
<path d="M57.3054 15.165C59.2404 15.165 60.4704 13.995 60.4704 12.18V10.425C60.4704 8.58 59.2404 7.425 57.3054 7.425C55.3704 7.425 54.1404 8.58 54.1404 10.425V12.18C54.1404 14.01 55.3704 15.165 57.3054 15.165ZM57.3054 14.085C56.0904 14.085 55.3104 13.35 55.3104 12.195V10.41C55.3104 9.24 56.0904 8.505 57.3054 8.505C58.5054 8.505 59.3004 9.255 59.3004 10.41V12.195C59.3004 13.335 58.5204 14.085 57.3054 14.085Z" fill="white"/>
<path d="M79.2682 5.90625C77.9504 5.90625 76.8783 7.00269 76.8783 8.35039C76.8783 9.69809 77.9504 10.7945 79.2682 10.7945C80.5859 10.7945 81.658 9.69809 81.658 8.35039C81.658 7.00269 80.5859 5.90625 79.2682 5.90625Z" fill="white"/>
<path d="M84.8334 7.37555C83.6474 7.37555 82.6826 8.31301 82.6826 9.46529C82.6826 10.6176 83.6474 11.555 84.8334 11.555C86.0194 11.555 86.9843 10.6176 86.9843 9.46529C86.9843 8.31301 86.0194 7.37555 84.8334 7.37555Z" fill="white"/>
<path d="M73.7759 7.37555C74.9619 7.37555 75.9267 8.31301 75.9267 9.46529C75.9267 10.6176 74.9619 11.555 73.7759 11.555C72.5899 11.555 71.625 10.6176 71.625 9.46529C71.625 8.31301 72.5899 7.37555 73.7759 7.37555Z" fill="white"/>
<path d="M79.465 19.4874C80.6471 19.4874 81.7761 19.523 82.8107 19.1097V14.649C82.8107 13.3013 81.7386 12.2049 80.4209 12.2049H78.509C77.1913 12.2049 76.1192 13.3013 76.1192 14.649V19.1097C77.1538 19.523 78.2828 19.4874 79.465 19.4874Z" fill="white"/>
<path d="M88 14C87.2086 15.9284 85.5838 17.7003 83.7666 18.6877V14.649C83.7666 14.0215 83.6005 13.4329 83.3109 12.9267C83.5742 12.8148 83.8647 12.7528 84.1699 12.7528H85.8906C86.6567 12.7528 87.3306 13.144 87.7117 13.7316C87.7487 13.7887 87.9679 13.9525 88 14Z" fill="white"/>
<path d="M75.1632 18.8485C73.367 17.8724 71.7971 16.3985 71 14.5C71.0445 14.4359 71.2361 13.8167 71.2912 13.7316C71.6723 13.144 72.3462 12.7528 73.1124 12.7528H74.833C75.1155 12.7528 75.3854 12.8059 75.6328 12.9025C75.3346 13.4141 75.1632 14.0115 75.1632 14.649V18.8485Z" fill="white"/>
<path fill-rule="evenodd" clip-rule="evenodd" d="M79.5 21C85.299 21 90 16.299 90 10.5C90 4.70101 85.299 0 79.5 0C73.7011 0 69 4.70101 69 10.5C69 16.299 73.7011 21 79.5 21ZM79.465 19.4874C84.8104 19.4874 88.4875 15.8103 88.4875 10.4648C88.4875 5.11938 84.8104 1.44228 79.465 1.44228C74.1195 1.44228 70.4424 5.11938 70.4424 10.4648C70.4424 15.8103 74.1195 19.4874 79.465 19.4874Z" fill="white"/>
</svg>
