<svg width="26" height="26" viewBox="0 0 26 26" fill="none" xmlns="http://www.w3.org/2000/svg">
<g clip-path="url(#clip0)">
<path fill-rule="evenodd" clip-rule="evenodd" d="M22.2077 3.78047C19.7684 1.34046 16.5161 0 13.0528 0C5.92122 0 0.111721 5.7819 0.105514 12.8795C0.105514 15.1528 0.70136 17.3642 1.83099 19.3224L0 26L6.86464 24.2086C8.7577 25.234 10.8866 25.7776 13.0528 25.7776H13.059C20.1905 25.7776 26 19.9957 26.0062 12.8919C26 9.45118 24.6531 6.2143 22.2077 3.78047ZM13.0528 23.5971C11.1163 23.5971 9.2232 23.0782 7.57221 22.1022L7.18119 21.8674L3.10957 22.9299L4.19575 18.9765L3.94127 18.5688C2.8613 16.8639 2.29649 14.8933 2.29649 12.8734C2.29649 6.98028 7.12532 2.17439 13.059 2.17439C15.9327 2.17439 18.6326 3.29247 20.6684 5.31243C22.698 7.33856 23.8152 10.0257 23.8152 12.8857C23.809 18.7973 18.9802 23.5971 13.0528 23.5971ZM18.9554 15.579C18.6326 15.4184 17.0437 14.6401 16.7458 14.5289C16.4478 14.4239 16.2306 14.3683 16.0196 14.6895C15.8023 15.0107 15.1817 15.7396 14.9955 15.9496C14.8093 16.1658 14.6168 16.1905 14.2941 16.0299C13.9713 15.8693 12.9286 15.5296 11.6935 14.43C10.7314 13.5776 10.0859 12.5213 9.89353 12.2C9.70732 11.8788 9.87491 11.7059 10.0363 11.5453C10.179 11.4032 10.359 11.1684 10.5204 10.9831C10.6818 10.7978 10.7376 10.6619 10.8432 10.4457C10.9487 10.2295 10.899 10.0442 10.8183 9.88358C10.7376 9.72297 10.0921 8.13542 9.81905 7.49299C9.55836 6.86291 9.29147 6.94939 9.09286 6.94322C8.90666 6.93086 8.68942 6.93086 8.47219 6.93086C8.25495 6.93086 7.90737 7.01117 7.60945 7.33238C7.31153 7.6536 6.47983 8.43193 6.47983 10.0195C6.47983 11.607 7.64048 13.1328 7.80186 13.349C7.96323 13.5652 10.0797 16.8144 13.3258 18.2105C14.0955 18.5441 14.6975 18.7417 15.1692 18.89C15.9451 19.1371 16.6464 19.1 17.2051 19.0197C17.8257 18.9271 19.1167 18.2414 19.3898 17.4878C19.6567 16.7341 19.6567 16.0917 19.576 15.9558C19.4953 15.8199 19.2781 15.7396 18.9554 15.579Z" fill="#DCE2E5"/>
</g>
<defs>
<clipPath id="clip0">
<rect width="26" height="26" fill="white"/>
</clipPath>
</defs>
</svg>
